<svg xmlns="http://www.w3.org/2000/svg" width="394.9754333496094" height="383.8169860839844" viewBox="-199.26695251464844 -208.68284606933594 394.9754333496094 383.8169860839844"><title>Neo4j Graph Visualization</title><desc>Created using Neo4j (http://www.neo4j.com/)</desc><g class="layer relationships"><g class="relationship" transform="translate(-56.06902768585463 23.65241408106812) rotate(314.3836210628167)"><path class="outline" fill="#A5ABB6" stroke="none" d="M 24.018736134675446,-6.953439040707552 L 24.277555179777966,-5.987513214418485 A 187.14547894829755 187.14547894829755 0 0 1 59.55968450337738,-11.90143883136787 L 59.489393279101066,-12.898965344193329 A 188.14547894829755 188.14547894829755 0 0 0 24.018736134675446,-6.953439040707552 Z M 81.54560364372183,-13.156964798563564 L 81.49866531516535,-12.158067009341721 A 187.14547894829755 187.14547894829755 0 0 1 116.90947649260056,-7.071062235800248 L 116.20101523447346,-4.155915130466976 L 123.82956328139939,-5.9038438177258765 L 117.8540915034367,-10.957925042911278 L 117.1456302453096,-8.042777937578006 A 188.14547894829755 188.14547894829755 0 0 0 81.54560364372183,-13.156964798563564"/><text text-anchor="middle" pointer-events="none" font-size="8px" fill="#000000" x="70.51956258454169" y="-9.8515044889715" font-family="sans-serif">road</text></g><g class="relationship" transform="translate(47.53656724680103 -82.20665552815032) rotate(326.29848378478005)"><path class="outline" fill="#A5ABB6" stroke="none" d="M 21.40063509461097,-12.933012701892217 L 21.90063509461097,-12.06698729810778 A 96.65924749056323 96.65924749056323 0 0 1 45.14254711130557,-21.704379406716953 L 44.88299913860864,-22.670109622599682 A 97.65924749056323 97.65924749056323 0 0 0 21.40063509461097,-12.933012701892217 Z M 91.13046097973412,-23.754217587096264 L 90.91644947875608,-22.777386446392242 A 96.65924749056323 96.65924749056323 0 0 1 114.58441348277029,-14.239630256880686 L 113.20779957998128,-11.574122019668126 L 121.03336835339776,-11.471782523241753 L 116.41989868648896,-17.793641239830766 L 115.04328478369996,-15.128133002618204 A 97.65924749056323 97.65924749056323 0 0 0 91.13046097973412,-23.754217587096264"/><text text-anchor="middle" pointer-events="none" font-size="8px" fill="#000000" x="67.95332985978729" y="-22.490187348055727" font-family="sans-serif">twowheeler</text></g><g class="relationship" transform="translate(166.7085117138549 -161.68901909418219) rotate(185.18811555237255)"><path class="outline" fill="#A5ABB6" stroke="none" d="M 21.40063509461097,12.933012701892217 L 21.90063509461097,12.06698729810778 A 107.15535945497435 107.15535945497435 0 0 0 50.24378890030134,23.409405050114515 L 50.00829413783545,24.381280668108474 A 108.15535945497435 108.15535945497435 0 0 1 21.40063509461097,12.933012701892217 Z M 96.31632375296043,25.396698048495608 L 96.12365638043381,24.415433923214493 A 107.15535945497435 107.15535945497435 0 0 0 124.9367494762394,14.326307381907874 L 123.55207488117381,11.66497758915765 L 131.37729809183418,11.53895495887988 L 126.78298226966018,17.87474710557484 L 125.39830767459459,15.213417312824618 A 108.15535945497435 108.15535945497435 0 0 1 96.31632375296043,25.396698048495608"/><text text-anchor="middle" pointer-events="none" font-size="8px" fill="#000000" x="73.1182737368975" y="29.897211571879367" transform="rotate(180 73.1182737368975 26.897211571879367)" font-family="sans-serif">twowheeler</text></g><g class="relationship" transform="translate(13.78255327919816 -175.5743891260902) rotate(439.77492628234563)"><path class="outline" fill="#A5ABB6" stroke="none" d="M 25 0.5 L 84.5866491819337 0.5 L 84.5866491819337 -0.5 L 25 -0.5 Z M 103.9225866819337 0.5 L 163.5092358638674 0.5 L 163.5092358638674 3.5 L 170.5092358638674 0 L 163.5092358638674 -3.5 L 163.5092358638674 -0.5 L 103.9225866819337 -0.5 Z"/><text text-anchor="middle" pointer-events="none" font-size="8px" fill="#000000" x="94.2546179319337" y="3" font-family="sans-serif">trek</text></g><g class="relationship" transform="translate(166.7085117138549 -161.68901909418219) rotate(185.18811555237255)"><path class="outline" fill="#A5ABB6" stroke="none" d="M 25 0.5 L 62.27166380737637 0.5 L 62.27166380737637 -0.5 L 25 -0.5 Z M 84.28338255737637 0.5 L 121.55504636475274 0.5 L 121.55504636475274 3.5 L 128.55504636475274 0 L 121.55504636475274 -3.5 L 121.55504636475274 -0.5 L 84.28338255737637 -0.5 Z"/><text text-anchor="middle" pointer-events="none" font-size="8px" fill="#000000" x="73.27752318237637" y="3" transform="rotate(180 73.27752318237637 0)" font-family="sans-serif">road</text></g><g class="relationship" transform="translate(166.7085117138549 -161.68901909418219) rotate(185.18811555237255)"><path class="outline" fill="#A5ABB6" stroke="none" d="M 21.40063509461097,-12.933012701892217 L 21.90063509461097,-12.06698729810778 A 107.15535945497435 107.15535945497435 0 0 1 63.53087381504989,-25.754951793574747 L 63.41937737597473,-26.748716626960174 A 108.15535945497435 108.15535945497435 0 0 0 21.40063509461097,-12.933012701892217 Z M 82.81435696472799,-27.17399922979071 L 82.74652822115395,-26.176302250971403 A 107.15535945497435 107.15535945497435 0 0 1 124.9367494762394,-14.326307381907874 L 123.55207488117381,-11.66497758915765 L 131.37729809183418,-11.53895495887988 L 126.78298226966018,-17.87474710557484 L 125.39830767459459,-15.213417312824618 A 108.15535945497435 108.15535945497435 0 0 0 82.81435696472799,-27.17399922979071"/><text text-anchor="middle" pointer-events="none" font-size="8px" fill="#000000" x="73.1182737368975" y="-23.897211571879367" transform="rotate(180 73.1182737368975 -26.897211571879367)" font-family="sans-serif">trek</text></g><g class="relationship" transform="translate(47.53656724680103 -82.20665552815032) rotate(326.29848378478005)"><path class="outline" fill="#A5ABB6" stroke="none" d="M 25 0.5 L 57.117109123417876 0.5 L 57.117109123417876 -0.5 L 25 -0.5 Z M 79.12882787341788 0.5 L 111.24593699683575 0.5 L 111.24593699683575 3.5 L 118.24593699683575 0 L 111.24593699683575 -3.5 L 111.24593699683575 -0.5 L 79.12882787341788 -0.5 Z"/><text text-anchor="middle" pointer-events="none" font-size="8px" fill="#000000" x="68.12296849841788" y="3" font-family="sans-serif">road</text></g><g class="relationship" transform="translate(47.53656724680103 -82.20665552815032) rotate(326.29848378478005)"><path class="outline" fill="#A5ABB6" stroke="none" d="M 21.40063509461097,12.933012701892217 L 21.90063509461097,12.06698729810778 A 96.65924749056323 96.65924749056323 0 0 0 58.37653892214645,24.2872823234991 L 58.25390482116296,25.27973427562371 A 97.65924749056323 97.65924749056323 0 0 1 21.40063509461097,12.933012701892217 Z M 77.65196228134806,25.734453037500685 L 77.5759663707491,24.73734490817256 A 96.65924749056323 96.65924749056323 0 0 0 114.58441348277029,14.239630256880686 L 113.20779957998128,11.574122019668126 L 121.03336835339776,11.471782523241753 L 116.41989868648896,17.793641239830766 L 115.04328478369996,15.128133002618204 A 97.65924749056323 97.65924749056323 0 0 1 77.65196228134806,25.734453037500685"/><text text-anchor="middle" pointer-events="none" font-size="8px" fill="#000000" x="67.95332985978732" y="28.490187348055727" font-family="sans-serif">trek</text></g><g class="relationship" transform="translate(-56.06902768585463 23.65241408106812) rotate(314.3836210628167)"><path class="outline" fill="#A5ABB6" stroke="none" d="M 24.018736134675446,6.953439040707552 L 24.277555179777966,5.987513214418485 A 187.14547894829755 187.14547894829755 0 0 0 60.891032830902866,11.990484414387197 L 60.82785558199484,12.988486736639203 A 188.14547894829755 188.14547894829755 0 0 1 24.018736134675446,6.953439040707552 Z M 80.20541352807629,13.215153026743849 L 80.16559835827515,12.215945964992528 A 187.14547894829755 187.14547894829755 0 0 0 116.90947649260056,7.071062235800248 L 116.20101523447346,4.155915130466976 L 123.82956328139939,5.9038438177258765 L 117.8540915034367,10.957925042911278 L 117.1456302453096,8.042777937578006 A 188.14547894829755 188.14547894829755 0 0 1 80.20541352807629,13.215153026743849"/><text text-anchor="middle" pointer-events="none" font-size="8px" fill="#000000" x="70.51956258454176" y="15.8515044889715" font-family="sans-serif">trek</text></g><g class="relationship" transform="translate(-56.06902768585463 23.65241408106812) rotate(243.31128517061774)"><path class="outline" fill="#A5ABB6" stroke="none" d="M 21.40063509461097,12.933012701892217 L 21.90063509461097,12.06698729810778 A 97.01274666422846 97.01274666422846 0 0 0 58.54989624063265,24.336903164505785 L 58.42767403176013,25.329405926042668 A 98.01274666422846 98.01274666422846 0 0 1 21.40063509461097,12.933012701892217 Z M 77.82562794024744,25.78306861565561 L 77.74993758602304,24.785937245034162 A 97.01274666422846 97.01274666422846 0 0 0 114.93273218346876,14.242742101154164 L 113.55582888093105,11.577383345665377 L 121.38138649669888,11.474194187814296 L 116.76860325351905,17.796553775139213 L 115.39169995098133,15.131195019650427 A 98.01274666422846 98.01274666422846 0 0 1 77.82562794024744,25.78306861565561"/><text text-anchor="middle" pointer-events="none" font-size="8px" fill="#000000" x="68.12708746450198" y="28.537574087863433" transform="rotate(180 68.12708746450198 25.537574087863433)" font-family="sans-serif">trek</text></g><g class="relationship" transform="translate(-120.56269207561715 -104.64190950102865) rotate(468.28806582169875)"><path class="outline" fill="#A5ABB6" stroke="none" d="M 24.018736134675446,-6.953439040707552 L 24.277555179777966,-5.987513214418485 A 207.33272923794053 207.33272923794053 0 0 1 52.55227957978407,-11.492078455827226 L 52.4298342008361,-12.484553709510806 A 208.33272923794053 208.33272923794053 0 0 0 24.018736134675446,-6.953439040707552 Z M 98.90672512893028,-12.994388401649331 L 98.80608078453952,-11.999465934347398 A 207.33272923794053 207.33272923794053 0 0 1 127.19475289142754,-7.116477668866615 L 126.48205009395568,-4.202364643866424 L 134.11313374933997,-5.939189978932273 L 128.1450232880567,-11.001961702200203 L 127.43232049058484,-8.087848677200013 A 208.33272923794053 208.33272923794053 0 0 0 98.90672512893028,-12.994388401649331"/><text text-anchor="middle" pointer-events="none" font-size="8px" fill="#000000" x="75.65950142936941" y="-10.539701210187758" transform="rotate(180 75.65950142936941 -13.539701210187758)" font-family="sans-serif">twowheeler</text></g><g class="relationship" transform="translate(-170.2669583369318 45.75498235491773) rotate(398.84019867613927)"><path class="outline" fill="#A5ABB6" stroke="none" d="M 24.018736134675446,-6.953439040707552 L 24.277555179777966,-5.987513214418485 A 210.5871831765745 210.5871831765745 0 0 1 53.379139918026354,-11.625382978439859 L 53.25851344618147,-12.618080945744225 A 211.5871831765745 211.5871831765745 0 0 0 24.018736134675446,-6.953439040707552 Z M 99.73670400177889,-13.122860889124865 L 99.63766598422599,-12.127777238832493 A 210.5871831765745 210.5871831765745 0 0 1 128.85483293354673,-7.123282737982525 L 128.1414945906639,-4.20932522137848 L 135.77295686276997,-5.944486190689998 L 129.80595072405714,-11.00855942678792 L 129.09261238117432,-8.094601910183874 A 211.5871831765745 211.5871831765745 0 0 0 99.73670400177889,-13.122860889124865"/><text text-anchor="middle" pointer-events="none" font-size="8px" fill="#000000" x="76.48913553496578" y="-10.650649485916034" font-family="sans-serif">twowheeler</text></g><g class="relationship" transform="translate(-45.59968601700788 146.1341331525907) rotate(306.0414587386254)"><path class="outline" fill="#A5ABB6" stroke="none" d="M 24.018736134675446,6.953439040707552 L 24.277555179777966,5.987513214418485 A 210.30692526110502 210.30692526110502 0 0 0 53.3079201324001,11.613929298989433 L 53.18713917100111,12.606608481486745 A 211.30692526110502 211.30692526110502 0 0 1 24.018736134675446,6.953439040707552 Z M 99.66522117795844,13.111819857279329 L 99.56604682104725,12.116749785911878 A 210.30692526110502 210.30692526110502 0 0 0 128.7118549878627,7.122701974533007 L 127.99857088409657,4.20873118069952 L 135.63000085743516,5.944034198050983 L 129.66290045955083,11.00799636631099 L 128.9496163557847,8.094025572477504 A 211.30692526110502 211.30692526110502 0 0 1 99.66522117795844,13.111819857279329"/><text text-anchor="middle" pointer-events="none" font-size="8px" fill="#000000" x="76.4176812187554" y="16.641095140514096" font-family="sans-serif">twowheeler</text></g><g class="relationship" transform="translate(-45.59968601700788 146.1341331525907) rotate(306.0414587386254)"><path class="outline" fill="#A5ABB6" stroke="none" d="M 24.018736134675446,-6.953439040707552 L 24.277555179777966,-5.987513214418485 A 210.30692526110502 210.30692526110502 0 0 1 66.78443172983455,-12.815209967740486 L 66.72773097682956,-13.813601185955406 A 211.30692526110502 211.30692526110502 0 0 0 24.018736134675446,-6.953439040707552 Z M 86.10159211249828,-14.024192815732675 L 86.06660698671946,-13.024804982619685 A 210.30692526110502 210.30692526110502 0 0 1 128.7118549878627,-7.122701974533007 L 127.99857088409657,-4.20873118069952 L 135.63000085743516,-5.944034198050983 L 129.66290045955083,-11.00799636631099 L 128.9496163557847,-8.094025572477504 A 211.30692526110502 211.30692526110502 0 0 0 86.10159211249828,-14.024192815732675"/><text text-anchor="middle" pointer-events="none" font-size="8px" fill="#000000" x="76.41768121875533" y="-10.641095140514096" font-family="sans-serif">trek</text></g><g class="relationship" transform="translate(-170.2669583369318 45.75498235491773) rotate(398.84019867613927)"><path class="outline" fill="#A5ABB6" stroke="none" d="M 24.018736134675446,6.953439040707552 L 24.277555179777966,5.987513214418485 A 210.5871831765745 210.5871831765745 0 0 0 66.85583577823024,12.825146314493878 L 66.79920510924913,13.823541510461268 A 211.5871831765745 211.5871831765745 0 0 1 24.018736134675446,6.953439040707552 Z M 86.17302536336837,14.033952367124073 L 86.13809178935868,13.034562730692443 A 210.5871831765745 210.5871831765745 0 0 0 128.85483293354673,7.123282737982525 L 128.1414945906639,4.20932522137848 L 135.77295686276997,5.944486190689998 L 129.80595072405714,11.00855942678792 L 129.09261238117432,8.094601910183874 A 211.5871831765745 211.5871831765745 0 0 1 86.17302536336837,14.033952367124073"/><text text-anchor="middle" pointer-events="none" font-size="8px" fill="#000000" x="76.4891355349658" y="16.650649485916034" font-family="sans-serif">trek</text></g><g class="relationship" transform="translate(-120.56269207561715 -104.64190950102865) rotate(468.28806582169875)"><path class="outline" fill="#A5ABB6" stroke="none" d="M 24.018736134675446,6.953439040707552 L 24.277555179777966,5.987513214418485 A 207.33272923794053 207.33272923794053 0 0 0 66.02679442915726,12.709704329912114 L 65.96933886102642,13.708052394311864 A 208.33272923794053 208.33272923794053 0 0 1 24.018736134675446,6.953439040707552 Z M 85.34363912737996,13.920581464446485 L 85.30809778457308,12.921213257552012 A 207.33272923794053 207.33272923794053 0 0 0 127.19475289142754,7.116477668866615 L 126.48205009395568,4.202364643866424 L 134.11313374933997,5.939189978932273 L 128.1450232880567,11.001961702200203 L 127.43232049058484,8.087848677200013 A 208.33272923794053 208.33272923794053 0 0 1 85.34363912737996,13.920581464446485"/><text text-anchor="middle" pointer-events="none" font-size="8px" fill="#000000" x="75.65950142936946" y="16.539701210187758" transform="rotate(180 75.65950142936946 13.539701210187758)" font-family="sans-serif">trek</text></g><g class="relationship" transform="translate(-120.56269207561715 -104.64190950102865) rotate(332.16654968203295)"><path class="outline" fill="#A5ABB6" stroke="none" d="M 25 0.5 L 62.79264870273879 0.5 L 62.79264870273879 -0.5 L 25 -0.5 Z M 82.12858620273879 0.5 L 119.92123490547758 0.5 L 119.92123490547758 3.5 L 126.92123490547758 0 L 119.92123490547758 -3.5 L 119.92123490547758 -0.5 L 82.12858620273879 -0.5 Z"/><text text-anchor="middle" pointer-events="none" font-size="8px" fill="#000000" x="72.46061745273879" y="3" font-family="sans-serif">trek</text></g><g class="relationship" transform="translate(-56.06902768585463 23.65241408106812) rotate(243.31128517061774)"><path class="outline" fill="#A5ABB6" stroke="none" d="M 25 0.5 L 57.29049535455273 0.5 L 57.29049535455273 -0.5 L 25 -0.5 Z M 79.30221410455273 0.5 L 111.59270945910546 0.5 L 111.59270945910546 3.5 L 118.59270945910546 0 L 111.59270945910546 -3.5 L 111.59270945910546 -0.5 L 79.30221410455273 -0.5 Z"/><text text-anchor="middle" pointer-events="none" font-size="8px" fill="#000000" x="68.29635472955273" y="3" transform="rotate(180 68.29635472955273 0)" font-family="sans-serif">road</text></g><g class="relationship" transform="translate(-56.06902768585463 23.65241408106812) rotate(243.31128517061774)"><path class="outline" fill="#A5ABB6" stroke="none" d="M 21.40063509461097,-12.933012701892217 L 21.90063509461097,-12.06698729810778 A 97.01274666422846 97.01274666422846 0 0 1 38.06475557597133,-19.51432744872399 L 37.73137409814663,-20.457119467274964 A 98.01274666422846 98.01274666422846 0 0 0 21.40063509461097,-12.933012701892217 Z M 98.72707334251729,-21.88363450615833 L 98.43813067047066,-20.92628810475989 A 97.01274666422846 97.01274666422846 0 0 1 114.93273218346876,-14.242742101154164 L 113.55582888093105,-11.577383345665377 L 121.38138649669888,-11.474194187814296 L 116.76860325351905,-17.796553775139213 L 115.39169995098133,-15.131195019650427 A 98.01274666422846 98.01274666422846 0 0 0 98.72707334251729,-21.88363450615833"/><text text-anchor="middle" pointer-events="none" font-size="8px" fill="#000000" x="68.12708746450194" y="-22.537574087863433" transform="rotate(180 68.12708746450194 -25.537574087863433)" font-family="sans-serif">PublicTransport</text></g><g class="relationship" transform="translate(-120.56269207561715 -104.64190950102865) rotate(367.6020173463995)"><path class="outline" fill="#A5ABB6" stroke="none" d="M 25 0.5 L 71.6269332276147 0.5 L 71.6269332276147 -0.5 L 25 -0.5 Z M 90.9628707276147 0.5 L 137.5898039552294 0.5 L 137.5898039552294 3.5 L 144.5898039552294 0 L 137.5898039552294 -3.5 L 137.5898039552294 -0.5 L 90.9628707276147 -0.5 Z"/><text text-anchor="middle" pointer-events="none" font-size="8px" fill="#000000" x="81.2949019776147" y="3" font-family="sans-serif">trek</text></g></g><g class="layer nodes"><g class="node" aria-label="graph-node72" transform="translate(-56.06902768585463,23.65241408106812)"><circle class="outline" cx="0" cy="0" r="25" fill="#57C7E3" stroke="#23b3d7" stroke-width="2px"/><text class="caption" text-anchor="middle" pointer-events="none" x="0" y="5" font-size="10px" fill="#2A2C34" font-family="sans-serif"> Darjeeling</text></g><g class="node" aria-label="graph-node74" transform="translate(48.488458565957934,16.829772591633)"><circle class="outline" cx="0" cy="0" r="25" fill="#F16667" stroke="#eb2728" stroke-width="2px"/><text class="caption" text-anchor="middle" pointer-events="none" x="0" y="5" font-size="10px" fill="#FFFFFF" font-family="sans-serif"> Sandakp…</text></g><g class="node" aria-label="graph-node77" transform="translate(47.53656724680103,-82.20665552815032)"><circle class="outline" cx="0" cy="0" r="25" fill="#D9C8AE" stroke="#c0a378" stroke-width="2px"/><text class="caption" text-anchor="middle" pointer-events="none" x="0" y="5" font-size="10px" fill="#2A2C34" font-family="sans-serif"> Tumbling</text></g><g class="node" aria-label="graph-node78" transform="translate(166.7085117138549,-161.68901909418219)"><circle class="outline" cx="0" cy="0" r="25" fill="#D9C8AE" stroke="#c0a378" stroke-width="2px"/><text class="caption" text-anchor="middle" pointer-events="none" x="0" y="5" font-size="10px" fill="#2A2C34" font-family="sans-serif"> Gairibus</text></g><g class="node" aria-label="graph-node73" transform="translate(13.78255327919816,-175.5743891260902)"><circle class="outline" cx="0" cy="0" r="25" fill="#D9C8AE" stroke="#c0a378" stroke-width="2px"/><text class="caption" text-anchor="middle" pointer-events="none" x="0" y="5" font-size="10px" fill="#2A2C34" font-family="sans-serif"> BhikeBh…</text></g><g class="node" aria-label="graph-node71" transform="translate(-120.56269207561715,-104.64190950102865)"><circle class="outline" cx="0" cy="0" r="25" fill="#57C7E3" stroke="#23b3d7" stroke-width="2px"/><text class="caption" text-anchor="middle" pointer-events="none" x="0" y="5" font-size="10px" fill="#2A2C34" font-family="sans-serif"> Rimbik</text></g><g class="node" aria-label="graph-node75" transform="translate(-170.2669583369318,45.75498235491773)"><circle class="outline" cx="0" cy="0" r="25" fill="#D9C8AE" stroke="#c0a378" stroke-width="2px"/><text class="caption" text-anchor="middle" pointer-events="none" x="0" y="5" font-size="10px" fill="#2A2C34" font-family="sans-serif"> Sirikhola</text></g><g class="node" aria-label="graph-node76" transform="translate(-45.59968601700788,146.1341331525907)"><circle class="outline" cx="0" cy="0" r="25" fill="#D9C8AE" stroke="#c0a378" stroke-width="2px"/><text class="caption" text-anchor="middle" pointer-events="none" x="0" y="5" font-size="10px" fill="#2A2C34" font-family="sans-serif"> Gurdum</text></g></g></svg>